<svg width="18" height="15" viewBox="0 0 18 15" fill="none" xmlns="http://www.w3.org/2000/svg">
<path d="M8.12523 11.5254C8.12523 10.5825 7.8763 9.79179 7.37845 9.15C7.02562 8.70857 6.54725 8.41821 5.94226 8.28C5.347 8.14286 4.78421 8.13321 4.27554 8.25C4.10237 7.23214 4.38376 6.15429 5.09807 5.01214C5.81238 3.87107 6.73774 3.01179 7.86656 2.4375L6.15547 0C5.28964 0.424286 4.4671 0.962143 3.7095 1.6125C2.94108 2.26286 2.25924 3.01071 1.65316 3.85607C1.04708 4.70143 0.592516 5.65607 0.300299 6.73821C0.00808198 7.82036 -0.0730893 8.92393 0.0665256 10.0596C0.24835 11.5596 0.737543 12.7596 1.53411 13.6489C2.32959 14.55 3.32204 15 4.50823 15C5.55263 15 6.41954 14.6893 7.10571 14.0593C7.78539 13.4421 8.12306 12.5968 8.12306 11.5221L8.12523 11.5254ZM18 11.5254C18 10.5825 17.7511 9.79179 17.2532 9.15C16.9004 8.7 16.4199 8.40857 15.817 8.27464C15.211 8.14178 14.6557 8.13536 14.1503 8.25107C13.9771 7.24393 14.2477 6.16179 14.9642 5.01536C15.6785 3.87964 16.6017 3.0225 17.7305 2.44393L16.0237 0C15.1579 0.424286 14.3408 0.962143 13.5778 1.6125C12.8024 2.27249 12.1137 3.02624 11.5279 3.85607C10.9262 4.7025 10.4781 5.65607 10.1859 6.73821C9.89022 7.81971 9.81045 8.94791 9.95104 10.0596C10.1307 11.5596 10.6177 12.7596 11.4121 13.6489C12.2054 14.5425 13.1947 14.9904 14.3808 14.9904C15.4274 14.9904 16.2943 14.6796 16.9805 14.0507C17.6591 13.4336 18 12.5882 18 11.5136V11.5254V11.5254Z" fill="black"/>
</svg>
